<svg width="80" height="80" viewBox="0 0 80 80" fill="none" xmlns="http://www.w3.org/2000/svg">
<path d="M79.2515 0.45035C78.8262 0.0295075 78.1973 -0.110981 77.6348 0.0910105L12.9673 23.2088C10.7207 21.8314 7.87104 21.5089 5.25743 22.5939C0.919047 24.3957 -1.14871 29.4004 0.648296 33.7504C4.8861 44.0074 11.0047 53.1886 18.8346 61.039C26.6646 68.8894 35.8218 75.0241 46.0522 79.2728C47.1147 79.7139 48.2159 79.9227 49.3001 79.9227C52.6436 79.9226 55.8227 77.9362 57.1796 74.6514C58.0926 72.4414 58.0063 70.0628 57.133 68.0204L79.6308 2.06644C79.8242 1.49949 79.6769 0.871348 79.2515 0.45035ZM22.7589 23.0229L29.6125 20.573C30.4171 21.4325 30.8093 22.6158 30.6522 23.8124C30.5136 24.8661 29.9743 25.8028 29.1334 26.4499C28.2925 27.0969 27.2512 27.3765 26.1995 27.238C25.1487 27.0992 24.2146 26.5587 23.5692 25.7154C22.9746 24.9385 22.6918 23.9907 22.7589 23.0229ZM54.3027 73.4565C53.1627 76.216 49.9956 77.5312 47.2439 76.3879C27.309 68.1092 11.7828 52.5424 3.52534 32.5555C2.9731 31.2188 2.9731 29.7467 3.52534 28.4098C4.07759 27.0732 5.1159 26.0321 6.4491 25.4785C7.7823 24.9248 9.25079 24.9248 10.584 25.4785C11.9172 26.0321 12.9555 27.0732 13.5077 28.4098C17.0421 36.9651 22.1457 44.623 28.6767 51.1711C35.2077 57.7191 42.8457 62.8359 51.3788 66.3796C54.1311 67.5224 55.4428 70.6973 54.3027 73.4565ZM68.1349 26.1199C67.994 26.1164 67.853 26.1083 67.7122 26.0899C66.6614 25.9511 65.7273 25.4104 65.0821 24.5673C64.4367 23.7242 64.1576 22.6794 64.2958 21.6259C64.5815 19.4509 66.5783 17.9145 68.7485 18.2005C69.418 18.2889 70.0465 18.5492 70.5826 18.9452L68.1349 26.1199ZM71.6174 15.9101C70.8589 15.4959 70.0255 15.2201 69.1549 15.1052C65.2826 14.5927 61.7183 17.3365 61.2086 21.2185C60.9617 23.0989 61.4599 24.9632 62.6115 26.468C63.7209 27.9173 65.3089 28.8642 67.1003 29.153L64.0058 38.2253L60.447 35.4874C59.7649 34.9629 58.7873 35.0915 58.264 35.7755C57.7405 36.4595 57.8693 37.4394 58.5514 37.9642L62.9427 41.3425L54.8943 64.9376C54.2192 64.3491 53.4419 63.8567 52.5711 63.4951C36.0707 56.6425 23.2199 43.7581 16.3854 27.215C16.1478 26.6397 15.8526 26.1055 15.5121 25.6135L19.6814 24.123C19.827 25.3825 20.3092 26.5838 21.099 27.6158C22.2505 29.1205 23.9178 30.0856 25.7933 30.333C26.1075 30.3745 26.4208 30.3951 26.7325 30.3951C28.2813 30.3951 29.7797 29.8878 31.0291 28.9267C32.5301 27.7719 33.4925 26.1005 33.7396 24.2198C33.9611 22.5316 33.5681 20.8595 32.6858 19.4743L52.0395 12.5557L52.773 14.3311C53.0215 14.9323 53.6011 15.2952 54.2121 15.2952C54.4106 15.2952 54.6124 15.2568 54.8073 15.1759C55.6016 14.8461 55.9789 13.9328 55.6499 13.1363L54.9764 11.5059L75.6398 4.11898L71.6174 15.9101Z" fill="#90E051"/>
<path d="M17.0604 42.0714C17.0557 42.0641 17.0427 42.0441 17.0377 42.0369C16.5588 41.3166 15.5896 41.1233 14.8709 41.603C14.1535 42.0819 13.9589 43.0541 14.4338 43.7747C14.7333 44.236 15.2344 44.4877 15.7463 44.4877C16.036 44.4877 16.3289 44.4071 16.5904 44.2385C17.3171 43.7701 17.5274 42.7999 17.0604 42.0714Z" fill="#90E051"/>
<path d="M14.6819 38.1756C13.1577 35.4961 11.7876 32.6919 10.6097 29.841C10.2792 29.0406 9.3638 28.6611 8.5663 28.9924C7.76817 29.3238 7.38936 30.2412 7.72 31.0413C8.94777 34.0132 10.376 36.9364 11.9648 39.7294C12.2534 40.2366 12.7814 40.521 13.3247 40.521C13.5875 40.521 13.8539 40.4545 14.0982 40.3148C14.8484 39.8856 15.1099 38.9279 14.6819 38.1756Z" fill="#90E051"/>
<path d="M49.1128 20.0711C48.8028 20.03 48.488 20.0093 48.177 20.0093C44.624 20.0093 41.5945 22.6761 41.1302 26.2124C40.6182 30.1123 43.3657 33.7029 47.2552 34.2163C47.5652 34.2574 47.88 34.2781 48.191 34.2781C51.7438 34.2781 54.7734 31.6113 55.2377 28.0747C55.7497 24.175 53.0021 20.5846 49.1128 20.0711ZM52.1366 27.6654C51.8763 29.6471 50.1801 31.1415 48.191 31.1415C48.0161 31.1415 47.8386 31.1299 47.6636 31.1067C45.4841 30.8189 43.9447 28.807 44.2316 26.6217C44.4918 24.6401 46.1879 23.1459 48.177 23.1459C48.3519 23.1459 48.5294 23.1575 48.7044 23.1807C50.8838 23.4687 52.4234 25.4804 52.1366 27.6654Z" fill="#90E051"/>
<path d="M48.7057 39.5777C48.3956 39.5366 48.0809 39.5159 47.7699 39.5159C44.2169 39.5159 41.1874 42.1826 40.7232 45.7191C40.4749 47.6083 40.9754 49.4811 42.1324 50.993C43.2891 52.5048 44.9639 53.4743 46.8481 53.7231C47.1579 53.7641 47.4726 53.7846 47.7834 53.7846C51.3364 53.7846 54.3661 51.1179 54.8305 47.5812C55.3427 43.6817 52.595 40.0914 48.7057 39.5777ZM51.7295 47.1721C51.4692 49.1538 49.7729 50.6482 47.7837 50.6482C47.609 50.6482 47.4315 50.6364 47.2566 50.6134C46.2009 50.4738 45.2625 49.9306 44.6142 49.0836C43.9659 48.2366 43.6854 47.1871 43.8245 46.1284C44.0847 44.1468 45.7809 42.6525 47.7699 42.6525C47.9448 42.6525 48.1223 42.6641 48.2973 42.6873C50.4765 42.975 52.0162 44.9869 51.7295 47.1721Z" fill="#90E051"/>
<path d="M38.3901 33.0809L33.5829 32.4462C32.7269 32.3322 31.9408 32.9376 31.828 33.7961C31.7151 34.6549 32.3181 35.4426 33.1744 35.5557L37.9816 36.1903C38.0509 36.1996 38.1197 36.204 38.1877 36.204C38.9605 36.204 39.6328 35.6296 39.7363 34.8404C39.8494 33.9818 39.2466 33.194 38.3901 33.0809Z" fill="#90E051"/>
<path d="M35.9524 44.6538L35.528 41.4195C35.4152 40.5608 34.6297 39.9561 33.7733 40.0695C32.9168 40.1825 32.314 40.9701 32.4268 41.8288L32.8514 45.0631C32.9549 45.8524 33.627 46.4269 34.4 46.4269C34.468 46.4269 34.5368 46.4225 34.6059 46.4132C35.4624 46.3001 36.0652 45.5126 35.9524 44.6538Z" fill="#90E051"/>
</svg>
