<svg width="80" height="80" viewBox="0 0 80 80" fill="none" xmlns="http://www.w3.org/2000/svg">
<path d="M59.2551 31.9518L63.9387 31.6526C63.9466 31.652 63.9551 31.6513 63.9636 31.6507C67.3013 31.3668 70.2971 29.6038 72.1837 26.8125L75.8863 21.3354C79.109 16.5671 80.3576 10.8079 79.4009 5.11919C79.213 4.00193 78.6462 2.97236 77.8057 2.22118C76.9646 1.46939 75.8832 1.02543 74.7605 0.971467C69.0425 0.695525 63.5233 2.63632 59.215 6.4339L54.2656 10.7969C51.7435 13.0197 50.3666 16.2298 50.487 19.6055C50.4876 19.6135 50.4876 19.6221 50.4882 19.6307L50.7552 24.3542C50.8592 26.1957 50.1896 28.0126 48.9216 29.3359L10.2549 69.3867C9.21982 70.4752 8.68523 71.9683 8.75031 73.5915C8.82207 75.3784 9.6352 77.1334 10.9258 78.2868C12.0916 79.3286 13.6942 79.9222 15.2961 79.9222C15.4676 79.9222 15.6391 79.9155 15.81 79.9014C17.4162 79.772 18.8229 79.0582 19.7753 77.8845L54.5673 34.3875C55.721 32.9562 57.43 32.0683 59.2551 31.9518ZM52.7099 32.8716L17.921 76.365C17.3895 77.0199 16.5721 77.4234 15.6197 77.5001C14.4866 77.5914 13.325 77.2113 12.5113 76.484C11.6975 75.7561 11.1842 74.6389 11.1386 73.494C11.0997 72.5319 11.3983 71.6654 11.9736 71.0608L50.6372 31.013C52.3705 29.2047 53.2828 26.7279 53.1417 24.2175L52.8747 19.5062C52.7841 16.8639 53.8636 14.3516 55.8384 12.6107L60.7877 8.24776C64.6289 4.86225 69.5515 3.13363 74.6468 3.37768C75.227 3.40589 75.7853 3.63523 76.2202 4.024C76.655 4.41216 76.9475 4.94442 77.0449 5.52145C77.8975 10.5933 76.7846 15.727 73.9115 19.9778L70.209 25.4555C68.7317 27.641 66.3872 29.0225 63.7744 29.2488L59.1037 29.5468C56.615 29.7063 54.2857 30.9167 52.7099 32.8716Z" fill="#90E051"/>
<path d="M77.5072 69.0825L51.5813 45.2737C51.0936 44.8254 50.3382 44.861 49.893 45.3528C49.4491 45.8446 49.4843 46.6068 49.9721 47.055L75.8913 70.8584C76.508 71.4329 76.8577 72.2798 76.8765 73.2425C76.899 74.388 76.4532 75.534 75.6839 76.3098C74.9152 77.0848 73.7803 77.5355 72.6418 77.5122C71.687 77.4932 70.8471 77.1406 70.2833 76.5256L47.1812 50.9526C46.7366 50.4602 45.9806 50.4252 45.4929 50.8728C45.0051 51.3211 44.9698 52.0833 45.4144 52.5751L68.522 78.1543C69.5377 79.2617 70.9839 79.8896 72.595 79.9215C72.6369 79.9221 72.6783 79.9227 72.7202 79.9227C74.4517 79.9227 76.1832 79.2145 77.3734 78.0138C78.5934 76.7838 79.3007 74.9828 79.2654 73.1953C79.2338 71.5709 78.6116 70.1127 77.5072 69.0825Z" fill="#90E051"/>
<path d="M14.4185 31.7236C16.3963 33.5608 18.9658 34.6081 21.654 34.6731C21.6625 34.6737 21.671 34.6737 21.6789 34.6737L26.3716 34.6885C28.201 34.694 29.9592 35.477 31.1932 36.8328L33.2604 39.1207C33.4963 39.3819 33.8193 39.5144 34.1441 39.5144C34.4311 39.5144 34.7194 39.4107 34.9481 39.2004C35.4364 38.7522 35.4717 37.9899 35.0271 37.4982L32.9569 35.2072C31.271 33.3541 28.8736 32.2872 26.3795 32.2786L21.6996 32.2639C19.6202 32.2105 17.6321 31.4078 16.0916 30.0017L2.49221 13.7016C2.35354 13.5348 2.36388 13.2932 2.51653 13.1393C2.62114 13.0332 2.74399 13.0178 2.80785 13.0178C2.87171 13.0178 2.99456 13.0332 3.09977 13.1393L15.4786 25.621C16.7022 26.8548 18.6934 26.8548 19.917 25.6204L21.3718 24.1542V24.1536L23.9547 21.5493C23.9547 21.5493 23.9553 21.5493 23.9553 21.5487L23.9559 21.5481L25.4101 20.082C26.6337 18.8482 26.6337 16.8406 25.4101 15.6068L13.0313 3.12565C12.8707 2.96376 12.8707 2.69947 13.0313 2.53759C13.1839 2.38367 13.4235 2.37325 13.589 2.51306L29.7555 16.2255C31.1506 17.7781 31.9467 19.7833 31.9996 21.8792L32.0136 26.5985C32.0221 29.1126 33.081 31.5298 34.9213 33.2333L37.1363 35.2673C37.6246 35.7156 38.38 35.68 38.8246 35.1882C39.2685 34.6958 39.2333 33.9342 38.7455 33.486L36.5342 31.455C35.1859 30.2078 34.4098 28.4344 34.4037 26.5905L34.3891 21.859C34.3891 21.8504 34.3891 21.8418 34.3885 21.8333C34.3241 19.1229 33.2853 16.5321 31.4632 14.538C31.4292 14.5006 31.3927 14.465 31.3537 14.4319L15.127 0.669154C14.0056 -0.282537 12.3781 -0.211406 11.3418 0.833493C10.2489 1.93542 10.2489 3.72781 11.3418 4.82913L23.7205 17.3109C24.0125 17.6052 24.0125 18.0841 23.7205 18.3785L23.1105 18.9929L9.3141 5.08299C8.84763 4.61205 8.09106 4.61205 7.62459 5.08299C7.15812 5.55332 7.15812 6.31614 7.62459 6.78647L21.421 20.697L20.527 21.5978L6.73058 7.68788C6.26411 7.21755 5.50754 7.21755 5.04107 7.68788C4.57399 8.15821 4.57399 8.92103 5.04107 9.39136L18.8369 23.3019L18.2275 23.9169C17.9356 24.2113 17.4606 24.2113 17.1687 23.9169L4.78928 11.4358C4.26017 10.9023 3.55651 10.608 2.80785 10.608C2.05919 10.608 1.35553 10.9023 0.826417 11.4358C-0.209913 12.4807 -0.279853 14.1216 0.663426 15.253L14.3139 31.6132C14.3461 31.6525 14.3814 31.6893 14.4185 31.7236Z" fill="#90E051"/>
</svg>
