<svg width="80" height="80" viewBox="0 0 80 80" fill="none" xmlns="http://www.w3.org/2000/svg">
<path d="M13.2865 43.9261C14.0208 43.9261 14.6161 43.3297 14.6161 42.5941C14.6161 41.8584 14.0208 41.262 13.2865 41.262C12.5522 41.262 11.9569 41.8584 11.9569 42.5941C11.9569 43.3297 12.5522 43.9261 13.2865 43.9261Z" fill="#90E051"/>
<path d="M18.6007 39.9328C19.335 39.9328 19.9303 39.3364 19.9303 38.6007C19.9303 37.8651 19.335 37.2687 18.6007 37.2687C17.8664 37.2687 17.2711 37.8651 17.2711 38.6007C17.2711 39.3364 17.8664 39.9328 18.6007 39.9328Z" fill="#90E051"/>
<path d="M31.8868 38.6018C32.6212 38.6018 33.2164 38.0054 33.2164 37.2697C33.2164 36.5341 32.6212 35.9377 31.8868 35.9377C31.1525 35.9377 30.5573 36.5341 30.5573 37.2697C30.5573 38.0054 31.1525 38.6018 31.8868 38.6018Z" fill="#90E051"/>
<path d="M9.30176 50.5811C10.0361 50.5811 10.6314 49.9847 10.6314 49.249C10.6314 48.5134 10.0361 47.917 9.30176 47.917C8.56745 47.917 7.97217 48.5134 7.97217 49.249C7.97217 49.9847 8.56745 50.5811 9.30176 50.5811Z" fill="#90E051"/>
<path d="M15.9441 49.2501C16.6784 49.2501 17.2737 48.6537 17.2737 47.918C17.2737 47.1824 16.6784 46.586 15.9441 46.586C15.2098 46.586 14.6145 47.1824 14.6145 47.918C14.6145 48.6537 15.2098 49.2501 15.9441 49.2501Z" fill="#90E051"/>
<path d="M21.2581 45.2569C21.9924 45.2569 22.5877 44.6605 22.5877 43.9248C22.5877 43.1891 21.9924 42.5928 21.2581 42.5928C20.5238 42.5928 19.9285 43.1891 19.9285 43.9248C19.9285 44.6605 20.5238 45.2569 21.2581 45.2569Z" fill="#90E051"/>
<path d="M75.7289 14.6413H57.1288V9.31718C57.1288 8.58207 57.7236 7.98615 58.4574 7.98615H69.086C71.2873 7.98615 73.0717 6.19839 73.0717 3.99308C73.0717 1.78776 71.2873 0 69.086 0H57.1288C52.7281 0.00440221 49.1617 3.57735 49.1573 7.98615V14.6413H30.5573C28.356 14.6413 26.5715 16.429 26.5715 18.6344V19.9654C26.5772 21.6807 27.6781 23.1998 29.3044 23.7362L29.8 30.6894C29.1702 30.6522 28.5418 30.6136 27.9001 30.6136C25.9758 30.6177 24.056 30.7986 22.1646 31.154L18.9415 26.9612C22.0278 23.8999 22.1992 20.2915 20.6115 18.2284C19.0239 16.1653 15.4859 15.4146 11.7566 17.6188L10.8943 16.4914C10.6096 16.101 10.1359 15.896 9.65694 15.956C9.17802 16.0159 8.76921 16.3314 8.58908 16.78C8.40894 17.2286 8.48581 17.7397 8.78987 18.1153L9.6561 19.244C6.55918 22.3053 6.40773 25.9217 7.98608 27.9768C9.59233 30.0652 13.1436 30.772 16.841 28.5864L19.3308 31.8248C9.62155 34.6067 2.65715 41.9539 2.65715 50.579C2.654 51.1648 2.68773 51.7503 2.75813 52.3319C2.91804 53.8306 3.90668 55.1114 5.31431 55.6435V58.5651C2.64152 58.5618 0.383872 60.5515 0.0464565 63.2078C-0.290959 65.8641 1.3973 68.3569 3.98573 69.0243V71.8754C3.98624 73.8715 4.73712 75.7942 6.08887 77.2607H1.32858C0.594824 77.2607 0 77.8566 0 78.5917C0 79.3268 0.594824 79.9227 1.32858 79.9227H78.386C79.1198 79.9227 79.7146 79.3268 79.7146 78.5917C79.7146 77.8566 79.1198 77.2607 78.386 77.2607H71.4203C72.639 75.9393 73.3747 74.2432 73.5075 72.449L76.9817 23.7335C78.6073 23.1978 79.7082 21.6798 79.7146 19.9654V18.6344C79.7146 16.429 77.9301 14.6413 75.7289 14.6413ZM10.0866 26.3543C9.02369 24.9674 9.99887 22.7792 11.2929 21.3789L12.0289 22.3359C12.3137 22.7263 12.7874 22.9313 13.2663 22.8714C13.7453 22.8114 14.1541 22.496 14.3342 22.0474C14.5143 21.5988 14.4375 21.0876 14.1334 20.7121L13.3974 19.7551C15.0036 18.8992 17.415 18.436 18.5071 19.8562C19.8277 21.5733 18.066 24.3964 16.3242 25.7407C14.5825 27.085 11.4085 28.0713 10.0866 26.3543ZM51.8145 7.98615C51.8145 5.04573 54.1938 2.66205 57.1288 2.66205H69.086C69.8198 2.66205 70.4146 3.25797 70.4146 3.99308C70.4146 4.72818 69.8198 5.3241 69.086 5.3241H58.4574C56.2561 5.3241 54.4717 7.11186 54.4717 9.31718V14.6413H51.8145V7.98615ZM73.8264 30.6136H32.4585L31.9842 23.9585H74.302L73.8264 30.6136ZM71.3579 65.2202H55.6116C55.7312 64.7865 55.7946 64.3392 55.8002 63.8892C55.8002 60.9488 53.4209 58.5651 50.4859 58.5651V55.6369C51.8889 55.111 52.8766 53.8383 53.0394 52.3466C53.1112 51.7601 53.1458 51.1698 53.1431 50.579C53.1431 50.0758 53.0939 49.582 53.0474 49.0882C55.6679 48.465 57.4067 45.9738 57.0917 43.2941C56.7767 40.6143 54.5078 38.596 51.8145 38.5997C50.7714 38.6056 49.7537 38.9231 48.8916 39.5115C46.5665 36.8351 43.6803 34.7059 40.4392 33.2756H73.6377L71.3579 65.2202ZM50.4859 61.2272C51.9534 61.2272 53.1431 62.419 53.1431 63.8892C53.1431 65.3594 51.9534 66.5513 50.4859 66.5513H25.793L31.1073 61.2272H50.4859ZM51.8145 71.8754V69.0243C52.61 68.8164 53.346 68.4253 53.9641 67.8823H71.1679L70.857 72.2574C70.6444 75.0381 68.3357 77.1889 65.552 77.1995H49.7685C51.0849 75.7397 51.814 73.8426 51.8145 71.8754ZM50.4501 41.6611C50.8594 41.4045 51.3316 41.2663 51.8145 41.2618C53.127 41.256 54.2448 42.2161 54.4395 43.5164C54.6342 44.8168 53.8468 46.0632 52.5904 46.4435C52.1247 44.7493 51.4029 43.1365 50.4501 41.6611ZM21.0686 34.0889L24.1907 38.1498C24.64 38.7277 25.4709 38.8333 26.05 38.3861C26.629 37.9389 26.7386 37.107 26.2952 36.5247L24.0087 33.5512C25.2983 33.3731 26.5983 33.281 27.9001 33.2756C40.3542 33.2756 50.4859 41.0382 50.4859 50.579C50.4875 51.0683 50.4592 51.5572 50.4009 52.0431C50.3324 52.7258 49.7572 53.2444 49.0723 53.241H6.7226C6.03271 53.2398 5.45711 52.7127 5.39402 52.0245C5.33806 51.5447 5.31144 51.062 5.31431 50.579C5.31431 42.859 11.9452 36.313 21.0686 34.0889ZM7.97146 55.9031H47.8288V58.5651H30.5573C30.2049 58.5652 29.8671 58.7055 29.618 58.9551L19.9924 68.597L11.6224 59.0137C11.3704 58.7286 11.0087 58.5653 10.6286 58.5651H7.97146V55.9031ZM2.65715 63.8892C2.65715 62.419 3.8468 61.2272 5.31431 61.2272H10.0254L14.6755 66.5513H5.31431C3.8468 66.5513 2.65715 65.3594 2.65715 63.8892ZM11.9572 77.1995C9.02218 77.1995 6.64288 74.8158 6.64288 71.8754V69.2133H17.0058L17.9996 70.3513C18.4848 70.9047 19.1766 71.2327 19.9114 71.2578H19.9977C20.7027 71.2571 21.3787 70.9766 21.8777 70.4778L23.1358 69.2133H49.1573V71.8754C49.1573 74.8158 46.778 77.1995 43.843 77.1995H11.9572ZM77.0575 19.9654C77.0575 20.7005 76.4626 21.2964 75.7289 21.2964H30.5573C29.8235 21.2964 29.2287 20.7005 29.2287 19.9654V18.6344C29.2287 17.8992 29.8235 17.3033 30.5573 17.3033H75.7289C76.4626 17.3033 77.0575 17.8992 77.0575 18.6344V19.9654Z" fill="#90E051"/>
<path d="M65.1004 35.9377C62.1654 35.9377 59.7861 38.3214 59.7861 41.2618C59.7861 44.2022 62.1654 46.5859 65.1004 46.5859C68.0355 46.5859 70.4148 44.2022 70.4148 41.2618C70.4148 38.3214 68.0355 35.9377 65.1004 35.9377ZM65.1004 43.9238C63.6329 43.9238 62.4433 42.732 62.4433 41.2618C62.4433 39.7916 63.6329 38.5997 65.1004 38.5997C66.568 38.5997 67.7576 39.7916 67.7576 41.2618C67.7576 42.732 66.568 43.9238 65.1004 43.9238Z" fill="#90E051"/>
<path d="M61.1144 53.2409C58.9131 53.2409 57.1287 55.0287 57.1287 57.234C57.1287 59.4393 58.9131 61.2271 61.1144 61.2271C63.3157 61.2271 65.1001 59.4393 65.1001 57.234C65.1001 55.0287 63.3157 53.2409 61.1144 53.2409ZM61.1144 58.565C60.3806 58.565 59.7858 57.9691 59.7858 57.234C59.7858 56.4989 60.3806 55.903 61.1144 55.903C61.8481 55.903 62.443 56.4989 62.443 57.234C62.443 57.9691 61.8481 58.565 61.1144 58.565Z" fill="#90E051"/>
</svg>
