<svg width="23" height="24" viewBox="0 0 23 24" fill="none" xmlns="http://www.w3.org/2000/svg">
<path d="M8.30842 11.3293C9.05397 12.8692 10.2895 14.1118 11.8171 14.858C11.9289 14.9115 12.0525 14.9347 12.1758 14.9253C12.2992 14.9158 12.4179 14.8741 12.5205 14.8042L14.7698 13.2889C14.8693 13.2219 14.9837 13.181 15.1028 13.17C15.2218 13.1589 15.3418 13.1781 15.4517 13.2256L19.6597 15.0476C19.8026 15.109 19.922 15.2156 19.9997 15.3514C20.0775 15.4872 20.1094 15.6449 20.0908 15.8007C19.9578 16.8521 19.45 17.8186 18.6625 18.519C17.8749 19.2194 16.8617 19.6059 15.8125 19.6059C12.5719 19.6059 9.464 18.3054 7.17254 15.9903C4.88108 13.6753 3.59375 10.5355 3.59375 7.26157C3.59381 6.20157 3.9763 5.17793 4.66961 4.38232C5.36293 3.58671 6.31951 3.0737 7.36027 2.93932C7.51445 2.92047 7.67053 2.95276 7.80497 3.03131C7.93942 3.10986 8.04495 3.23043 8.10567 3.37485L9.91068 7.62982C9.95737 7.73988 9.97639 7.8599 9.96606 7.97918C9.95572 8.09846 9.91635 8.21332 9.85145 8.31351L8.35677 10.6208C8.28874 10.7246 8.24853 10.8444 8.24005 10.9686C8.23158 11.0928 8.25513 11.2171 8.30842 11.3293V11.3293Z" stroke="white" stroke-width="1.5" stroke-linecap="round" stroke-linejoin="round"/>
</svg>
