<svg width="23" height="24" viewBox="0 0 23 24" fill="none" xmlns="http://www.w3.org/2000/svg">
<path d="M11.5 12.3443C13.0878 12.3443 14.375 11.0438 14.375 9.43971C14.375 7.83557 13.0878 6.53516 11.5 6.53516C9.91218 6.53516 8.625 7.83557 8.625 9.43971C8.625 11.0438 9.91218 12.3443 11.5 12.3443Z" stroke="white" stroke-width="1.5" stroke-linecap="round" stroke-linejoin="round"/>
<path d="M18.6875 9.4396C18.6875 15.9748 11.5 21.0578 11.5 21.0578C11.5 21.0578 4.3125 15.9748 4.3125 9.4396C4.3125 7.51377 5.06975 5.66681 6.41767 4.30503C7.76559 2.94326 9.59376 2.17822 11.5 2.17822C13.4062 2.17822 15.2344 2.94326 16.5823 4.30503C17.9302 5.66681 18.6875 7.51377 18.6875 9.4396V9.4396Z" stroke="white" stroke-width="1.5" stroke-linecap="round" stroke-linejoin="round"/>
</svg>
