<svg width="21" height="20" viewBox="0 0 21 20" fill="none" xmlns="http://www.w3.org/2000/svg">
<path d="M10.6673 16.4094L15.6266 19.5581C16.2662 19.9616 17.0534 19.3613 16.8664 18.6233L15.4298 12.9752C15.3909 12.8187 15.3971 12.6543 15.4476 12.5011C15.4981 12.3479 15.5908 12.2121 15.7151 12.1093L20.1628 8.39964C20.7434 7.91748 20.4482 6.94333 19.6905 6.89413L13.8849 6.52021C13.7265 6.511 13.5742 6.45584 13.4467 6.36147C13.3191 6.26711 13.2218 6.13763 13.1666 5.98886L11.0018 0.537531C10.9445 0.379996 10.8401 0.24391 10.7028 0.147747C10.5655 0.0515831 10.4019 0 10.2343 0C10.0667 0 9.90309 0.0515831 9.76579 0.147747C9.62848 0.24391 9.52409 0.379996 9.46678 0.537531L7.302 5.98886C7.24683 6.13763 7.14951 6.26711 7.02194 6.36147C6.89438 6.45584 6.74209 6.511 6.58368 6.52021L0.77812 6.89413C0.0204443 6.94333 -0.274754 7.91748 0.305803 8.39964L4.75345 12.1093C4.87777 12.2121 4.97051 12.3479 5.021 12.5011C5.07148 12.6543 5.07766 12.8187 5.03881 12.9752L3.71042 18.2101C3.4841 19.0957 4.42874 19.814 5.18641 19.3318L9.80134 16.4094C9.93075 16.3271 10.0809 16.2834 10.2343 16.2834C10.3877 16.2834 10.5378 16.3271 10.6673 16.4094V16.4094Z" fill="#90E051"/>
</svg>
