<svg width="21" height="20" viewBox="0 0 21 20" fill="none" xmlns="http://www.w3.org/2000/svg">
<path d="M8.32859 3.864C9.20755 1.28802 9.64703 2.47955e-05 10.4481 2.47955e-05C11.2492 2.47955e-05 11.6886 1.28801 12.5676 3.86399L13.0259 5.2072C13.2721 5.92868 13.3952 6.28942 13.6822 6.49795C13.9692 6.70648 14.3503 6.71207 15.1126 6.72325L16.5317 6.74406C19.2532 6.78398 20.6139 6.80394 20.8615 7.5658C21.109 8.32765 20.0199 9.14364 17.8416 10.7756L16.7058 11.6266C16.0957 12.0836 15.7906 12.3122 15.681 12.6496C15.5714 12.987 15.6838 13.3512 15.9087 14.0796L16.3275 15.4356C17.1305 18.0363 17.532 19.3366 16.8839 19.8075C16.2359 20.2783 15.1232 19.4946 12.898 17.9273L11.7377 17.11C11.1145 16.671 10.8029 16.4515 10.4481 16.4515C10.0933 16.4515 9.78171 16.671 9.15847 17.11L7.99816 17.9273C5.77295 19.4946 4.66034 20.2783 4.01226 19.8075C3.36419 19.3366 3.76571 18.0363 4.56873 15.4357L4.98746 14.0796C5.21237 13.3512 5.32483 12.987 5.2152 12.6496C5.10557 12.3122 4.80052 12.0836 4.19043 11.6266L3.05459 10.7756C0.876302 9.14364 -0.212841 8.32765 0.0347004 7.5658C0.282242 6.80394 1.643 6.78398 4.36451 6.74406L5.78361 6.72325C6.54585 6.71207 6.92697 6.70648 7.21399 6.49795C7.501 6.28942 7.62409 5.92868 7.87027 5.2072L8.32859 3.864Z" fill="url(#paint0_linear_6087_232)"/>
<defs>
<linearGradient id="paint0_linear_6087_232" x1="10.4481" y1="-2.34766" x2="10.4481" y2="24.2463" gradientUnits="userSpaceOnUse">
<stop stop-color="#FFF500"/>
<stop offset="1" stop-color="#FFA800"/>
</linearGradient>
</defs>
</svg>
