<svg width="19" height="19" viewBox="0 0 19 19" fill="none" xmlns="http://www.w3.org/2000/svg">
<mask id="path-1-outside-1_6087_245" maskUnits="userSpaceOnUse" x="-0.600342" y="-0.600342" width="19" height="19" fill="black">
<rect fill="white" x="-0.600342" y="-0.600342" width="19" height="19"/>
<path fill-rule="evenodd" clip-rule="evenodd" d="M9.61138 1.91287C9.61138 1.62943 9.3816 1.39966 9.09816 1.39966C8.81472 1.39966 8.58495 1.62943 8.58495 1.91287V8.58441H1.91287C1.62943 8.58441 1.39966 8.81418 1.39966 9.09763C1.39966 9.38107 1.62943 9.61084 1.91287 9.61084H8.58494V16.2829C8.58494 16.5664 8.81472 16.7962 9.09816 16.7962C9.3816 16.7962 9.61138 16.5664 9.61138 16.2829V9.61084H16.2829C16.5664 9.61084 16.7962 9.38107 16.7962 9.09763C16.7962 8.81418 16.5664 8.58441 16.2829 8.58441H9.61138V1.91287Z"/>
</mask>
<path fill-rule="evenodd" clip-rule="evenodd" d="M9.61138 1.91287C9.61138 1.62943 9.3816 1.39966 9.09816 1.39966C8.81472 1.39966 8.58495 1.62943 8.58495 1.91287V8.58441H1.91287C1.62943 8.58441 1.39966 8.81418 1.39966 9.09763C1.39966 9.38107 1.62943 9.61084 1.91287 9.61084H8.58494V16.2829C8.58494 16.5664 8.81472 16.7962 9.09816 16.7962C9.3816 16.7962 9.61138 16.5664 9.61138 16.2829V9.61084H16.2829C16.5664 9.61084 16.7962 9.38107 16.7962 9.09763C16.7962 8.81418 16.5664 8.58441 16.2829 8.58441H9.61138V1.91287Z" fill="white"/>
<path d="M8.58495 8.58441V9.98409H9.98463V8.58441H8.58495ZM8.58494 9.61084H9.98463V8.21116H8.58494V9.61084ZM9.61138 9.61084V8.21116H8.2117V9.61084H9.61138ZM9.61138 8.58441H8.2117V9.98409H9.61138V8.58441ZM9.09816 2.79934C8.60858 2.79934 8.2117 2.40245 8.2117 1.91287H11.0111C11.0111 0.856412 10.1546 -2.30074e-05 9.09816 -2.30074e-05V2.79934ZM9.98463 1.91287C9.98463 2.40246 9.58774 2.79934 9.09816 2.79934V-2.30074e-05C8.0417 -2.30074e-05 7.18526 0.85641 7.18526 1.91287H9.98463ZM9.98463 8.58441V1.91287H7.18526V8.58441H9.98463ZM1.91287 9.98409H8.58495V7.18473H1.91287V9.98409ZM2.79934 9.09763C2.79934 9.5872 2.40246 9.98409 1.91287 9.98409V7.18473C0.856408 7.18473 -2.30074e-05 8.04116 -2.30074e-05 9.09763H2.79934ZM1.91287 8.21116C2.40246 8.21116 2.79934 8.60805 2.79934 9.09763H-2.30074e-05C-2.30074e-05 10.1541 0.856408 11.0105 1.91287 11.0105V8.21116ZM8.58494 8.21116H1.91287V11.0105H8.58494V8.21116ZM9.98463 16.2829V9.61084H7.18526V16.2829H9.98463ZM9.09816 15.3965C9.58774 15.3965 9.98463 15.7934 9.98463 16.2829H7.18526C7.18526 17.3394 8.0417 18.1958 9.09816 18.1958V15.3965ZM8.2117 16.2829C8.2117 15.7934 8.60858 15.3965 9.09816 15.3965V18.1958C10.1546 18.1958 11.0111 17.3394 11.0111 16.2829H8.2117ZM8.2117 9.61084V16.2829H11.0111V9.61084H8.2117ZM16.2829 8.21116H9.61138V11.0105H16.2829V8.21116ZM15.3965 9.09763C15.3965 8.60805 15.7934 8.21116 16.2829 8.21116V11.0105C17.3394 11.0105 18.1958 10.1541 18.1958 9.09763H15.3965ZM16.2829 9.98409C15.7934 9.98409 15.3965 9.5872 15.3965 9.09763H18.1958C18.1958 8.04116 17.3394 7.18473 16.2829 7.18473V9.98409ZM9.61138 9.98409H16.2829V7.18473H9.61138V9.98409ZM8.2117 1.91287V8.58441H11.0111V1.91287H8.2117Z" fill="white" mask="url(#path-1-outside-1_6087_245)"/>
</svg>
